<svg xmlns="http://www.w3.org/2000/svg" width="256" height="256" viewBox="0 0 256 256" role="img" aria-labelledby="title desc">
  <title id="title">Tacin Arabi Collection logo</title>
  <desc id="desc">A geometric floral emblem in warm gold tones.</desc>
  <defs>
    <linearGradient id="gold" x1="0" y1="0" x2="1" y2="1">
      <stop offset="0" stop-color="#F7C56C" />
      <stop offset="0.5" stop-color="#D29A43" />
      <stop offset="1" stop-color="#B67822" />
    </linearGradient>
  </defs>
  <g fill="none" stroke="url(#gold)" stroke-width="9" stroke-linecap="round" stroke-linejoin="round">
    <path d="M128 24 152 52 128 80 104 52Z"/>
    <path d="M128 176 152 204 128 232 104 204Z"/>
    <path d="M24 128 52 152 80 128 52 104Z"/>
    <path d="M176 128 204 152 232 128 204 104Z"/>
    <path d="M56 56 96 56 96 96 56 96Z"/>
    <path d="M160 56 200 56 200 96 160 96Z"/>
    <path d="M56 160 96 160 96 200 56 200Z"/>
    <path d="M160 160 200 160 200 200 160 200Z"/>
    <path d="M96 96 128 128 160 96"/>
    <path d="M96 160 128 128 160 160"/>
    <path d="M96 96 128 128 96 160"/>
    <path d="M160 96 128 128 160 160"/>
    <circle cx="128" cy="128" r="14"/>
  </g>
</svg>
